<svg xmlns="http://www.w3.org/2000/svg" xmlns:xlink="http://www.w3.org/1999/xlink" version="1.1" x="0px" y="0px" viewBox="0 0 1024 1024" style="enable-background:new 0 0 1024 1024;" xml:space="preserve"><g><g><path d="M817.3,210.5c0,12,0,24.1,0,36.1c0,31.1,0,62.2,0,93.2c0,42.5,0,85,0,127.5c0,46.3,0,92.7,0,139    c0,42.6,0,85.1,0,127.7c0,31.1,0,62.2,0,93.3c0,12.3,0.1,24.6,0,36.9c0,3.3-0.2,6.5-0.5,9.7c-0.1,1.5-1,3,0.2-1.2    c-0.2,0.8-0.3,1.8-0.4,2.7c-0.4,2.2-0.9,4.4-1.4,6.6c-0.9,3.7-2.5,7.2-3.5,10.8c-0.7,2.6,1.7-3.5,0.5-1.1    c-0.4,0.8-0.7,1.6-1.1,2.4c-0.9,2-2,3.9-3.1,5.8c-0.7,1.2-4.8,9.4-6.1,9.3c0,0,3.2-3.9,0.7-1c-0.6,0.7-1.1,1.3-1.7,2    c-1.4,1.7-2.9,3.3-4.4,4.8c-2.6,2.6-5.5,4.9-8.2,7.4c-2,1.8,3.2-2.2,0.9-0.7c-0.7,0.5-1.4,1-2.1,1.5c-1.8,1.2-3.6,2.4-5.5,3.5    c-1.7,1-3.4,1.9-5.2,2.8c-0.7,0.4-4,2.5-4.8,2.2c0,0,4.7-1.8,1.1-0.5c-0.8,0.3-1.7,0.6-2.5,0.9c-2.1,0.7-4.2,1.4-6.4,2    c-1.7,0.5-3.5,0.9-5.2,1.3c-0.9,0.2-1.8,0.4-2.7,0.5c-0.4,0.1-4.9,0.7-1.4,0.3c3.1-0.4,0,0-0.8,0c-0.9,0.1-1.8,0.2-2.8,0.2    c-2.1,0.1-4.2,0.2-6.3,0.2c-1.2,0-2.3,0-3.5,0c-23.3,0-46.6,0-70,0c-41.8,0-83.5,0-125.3,0c-45.5,0-91.1,0-136.6,0    c-34.2,0-68.3,0-102.5,0c-8.1,0-16.3,0-24.4,0c-1.9,0-3.9,0-5.8,0c-1.9-0.1-3.7-0.2-5.5-0.3c0,0-2.6-0.1-2.7-0.3    c1,1.2,4.1,0.6,0.6,0c-4-0.7-7.9-1.6-11.8-2.8c-1.9-0.6-3.8-1.3-5.7-2c-2.7-0.9,0.3,0.7,1.1,0.5c-0.3,0.1-2.4-1.1-2.4-1.1    c-3.6-1.7-7-3.6-10.4-5.7c-1.5-0.9-2.9-2-4.3-2.9c-3.1-2.1,0.8,0.8,0.9,0.8c-0.7-0.1-2-1.6-2.5-2.1c-3-2.5-5.8-5.2-8.5-8.1    c-1.3-1.4-2.6-2.9-3.8-4.4c-1.9-2.3,0.3,0.9,0.7,1c-0.2,0-1.6-2.2-1.5-2.1c-2.3-3.2-4.3-6.6-6.1-10.1c-0.8-1.6-1.6-3.2-2.3-4.7    c-1.7-3.5,0.4,1.1,0.5,1.1c-0.4-0.1-1-2.6-1.2-3.1c-1.4-3.8-2.5-7.7-3.3-11.6c-0.2-0.8-1.6-5.5-1.1-6c0,0,0.5,5.2,0.2,1.2    c-0.1-0.9-0.2-1.8-0.2-2.8c-0.2-2.3-0.2-4.7-0.3-7c0-3.5,0-7,0-10.6c0-23.1,0-46.1,0-69.2c0-38.1,0-76.1,0-114.2    c0-45.3,0-90.6,0-135.9c0-45.3,0-90.6,0-135.9c0-37.5,0-75.1,0-112.6c0-22.1,0-44.3,0-66.4c0-3,0-6,0-9c0-10.5-9.2-20.5-20-20    c-10.8,0.5-20,8.8-20,20c0,12.2,0,24.4,0,36.6c0,31.6,0,63.2,0,94.8c0,43,0,85.9,0,128.9c0,46.7,0,93.3,0,140    c0,42.6,0,85.2,0,127.8c0,30.8,0,61.6,0,92.5c0,14.2-1,28.8,0.5,43c3.8,36.3,23.7,69.2,55.6,87.7c18.2,10.5,38.6,15.2,59.5,15.2    c23.1,0,46.2,0,69.3,0c42.1,0,84.3,0,126.4,0c45.8,0,91.7,0,137.5,0c34.2,0,68.4,0,102.6,0c8,0,15.9,0,23.9,0    c21.5,0,42.8-5.1,61.2-16.5c31.7-19.6,51.5-53.4,53.7-90.5c0.3-4.7,0.2-9.4,0.2-14.1c0-22.3,0-44.6,0-66.9c0-37.8,0-75.7,0-113.5    c0-45.7,0-91.3,0-137c0-45.7,0-91.4,0-137.2c0-38.1,0-76.2,0-114.4c0-22.5,0-44.9,0-67.4c0-3,0-6,0-9c0-10.5-9.2-20.5-20-20    C826.4,190.9,817.3,199.2,817.3,210.5L817.3,210.5z"/><path d="M920.3,185.5c-7.3,0-14.5,0-21.8,0c-19.8,0-39.5,0-59.3,0c-29.4,0-58.8,0-88.2,0c-35.7,0-71.4,0-107.1,0    c-39.1,0-78.2,0-117.3,0c-39.5,0-79,0-118.4,0c-36.8,0-73.6,0-110.5,0c-31.1,0-62.2,0-93.4,0c-22.4,0-44.8,0-67.2,0    c-10.6,0-21.3-0.2-32,0c-0.5,0-0.9,0-1.4,0c-10.5,0-20.5,9.2-20,20c0.5,10.8,8.8,20,20,20c7.3,0,14.5,0,21.8,0    c19.8,0,39.5,0,59.3,0c29.4,0,58.8,0,88.2,0c35.7,0,71.4,0,107.1,0c39.1,0,78.2,0,117.3,0c39.5,0,79,0,118.4,0    c36.8,0,73.6,0,110.5,0c31.1,0,62.2,0,93.4,0c22.4,0,44.8,0,67.2,0c10.6,0,21.3,0.2,32,0c0.5,0,0.9,0,1.4,0c10.5,0,20.5-9.2,20-20    C939.8,194.6,931.5,185.5,920.3,185.5L920.3,185.5z"/><path d="M748.2,205.5c0-20.8,0-41.6,0-62.4c0-10.6,0.2-20.8-1.7-31.3c-3.9-21.5-18-40.5-36.2-52.3    c-17.1-11-36-12.4-55.5-12.4c-18,0-36,0-54,0c-53.2,0-106.3,0-159.5,0c-20.9,0-41.7,0-62.6,0c-12.2,0-24.3-0.5-36.4,1.4    c-22,3.4-41.2,17.2-53.5,35.4c-9.3,13.8-13.1,30.4-13.1,46.8c0,22.8,0,45.6,0,68.4c0,2.1,0,4.2,0,6.3c0,10.5,9.2,20.5,20,20    c10.8-0.5,20-8.8,20-20c0-20.1,0-40.2,0-60.3c0-4.5,0-9,0-13.6c0-3.4,0.6-7.1,0.4-10.4c0.3,4.4-0.4,2.5,0,0.6    c0.2-1.1,0.5-2.2,0.7-3.3c0.5-2.2,1.3-4.2,2-6.4c1.2-3.7-0.4,1.2-0.5,1.1c-0.2-0.2,1.6-3.2,1.7-3.5c1-1.9,2.1-3.8,3.4-5.6    c0.2-0.4,0.5-0.7,0.7-1.1c1.3-1.7,1-1.4-0.8,0.9c-0.1-0.1,1.4-1.7,1.7-2c1.4-1.6,2.9-3.2,4.5-4.6c0.8-0.7,1.7-1.4,2.5-2.1    c1.9-2-4,2.7-0.4,0.4c2.2-1.4,4.3-2.9,6.7-4.1c0.8-0.4,1.6-0.8,2.3-1.2c3.8-2-3.2,0.8-0.5,0.2c1.9-0.5,3.8-1.3,5.7-1.9    c0.6-0.2,6.3-1.9,6.6-1.4c-0.9,0.1-1.7,0.2-2.6,0.3c0.9-0.1,1.8-0.2,2.7-0.2c1.4-0.1,2.8-0.1,4.2-0.1c0.6,0,1.1,0,1.7,0    c4.3,0,8.6,0,12.9,0c18.1,0,36.2,0,54.4,0c51.7,0,103.4,0,155.1,0c29.3,0,58.6-0.7,87.9,0c0.9,0,1.9,0.1,2.8,0.1    c0.5,0,4.8,0.8,1.4,0.1c-3.5-0.7,0.9,0.2,1.4,0.3c1.1,0.2,2.2,0.5,3.3,0.8c1.9,0.5,3.8,1.2,5.7,1.8c4.4,1.4-3.9-2.1,0.1,0    c1.2,0.6,2.3,1.2,3.5,1.8c1.9,1.1,3.7,2.3,5.5,3.5c3.2,2.1-1-0.7-0.9-0.8c0.3-0.1,2.7,2.3,3,2.5c1.4,1.3,2.8,2.7,4.1,4.2    c0.3,0.3,2.2,2.2,2.1,2.5c-1.8-2.3-2-2.7-0.8-0.9c0.2,0.4,0.5,0.7,0.7,1.1c1.2,1.8,2.3,3.7,3.4,5.6c0.5,0.9,0.9,2,1.5,2.9    c1.5,2.3-1.6-4.7-0.2-0.5c0.7,2.1,1.4,4.2,2,6.4c0.2,0.9,0.4,1.7,0.6,2.6c0.2,0.9,0.3,1.8,0.5,2.7c-0.4-2.8-0.4-3.5-0.3-1.9    c0.2,3.4,0.3,6.8,0.3,10.2c0,22.5,0,45,0,67.4c0,2,0,4,0,6c0,10.5,9.2,20.5,20,20C739.1,225,748.2,216.7,748.2,205.5L748.2,205.5z    "/><path d="M312.7,336.5c0,16.4,0,32.8,0,49.3c0,39.4,0,78.8,0,118.3c0,47.5,0,95,0,142.5c0,41.1,0,82.2,0,123.3    c0,20.1-0.5,40.2,0,60.2c0,0.3,0,0.6,0,0.9c0,10.5,9.2,20.5,20,20c10.8-0.5,20-8.8,20-20c0-16.4,0-32.8,0-49.3    c0-39.4,0-78.8,0-118.3c0-47.5,0-95,0-142.5c0-41.1,0-82.2,0-123.3c0-20.1,0.5-40.2,0-60.2c0-0.3,0-0.6,0-0.9    c0-10.5-9.2-20.5-20-20C321.8,316.9,312.7,325.2,312.7,336.5L312.7,336.5z"/><path d="M532,830.8c0-16.4,0-32.8,0-49.3c0-39.4,0-78.8,0-118.3c0-47.5,0-95,0-142.5c0-41.1,0-82.2,0-123.3    c0-20.1,0.5-40.2,0-60.2c0-0.3,0-0.6,0-0.9c0-10.5-9.2-20.5-20-20c-10.8,0.5-20,8.8-20,20c0,16.4,0,32.8,0,49.3    c0,39.4,0,78.8,0,118.3c0,47.5,0,95,0,142.5c0,41.1,0,82.2,0,123.3c0,20.1-0.5,40.2,0,60.2c0,0.3,0,0.6,0,0.9    c0,10.5,9.2,20.5,20,20C522.8,850.3,532,842,532,830.8L532,830.8z"/><path d="M711.3,830.8c0-16.4,0-32.8,0-49.3c0-39.4,0-78.8,0-118.3c0-47.5,0-95,0-142.5c0-41.1,0-82.2,0-123.3    c0-20.1,0.5-40.2,0-60.2c0-0.3,0-0.6,0-0.9c0-10.5-9.2-20.5-20-20c-10.8,0.5-20,8.8-20,20c0,16.4,0,32.8,0,49.3    c0,39.4,0,78.8,0,118.3c0,47.5,0,95,0,142.5c0,41.1,0,82.2,0,123.3c0,20.1-0.5,40.2,0,60.2c0,0.3,0,0.6,0,0.9    c0,10.5,9.2,20.5,20,20C702.2,850.3,711.3,842,711.3,830.8L711.3,830.8z"/></g></g></svg>