<svg xmlns="http://www.w3.org/2000/svg" xmlns:xlink="http://www.w3.org/1999/xlink" version="1.1" x="0px" y="0px" viewBox="0 0 90 90" enable-background="new 0 0 90 90" xml:space="preserve"><g><path d="M45,82.2c-1.8,0-3.4-0.7-4.7-1.9L9.6,49.5C5.4,45.3,0.7,37.7,1,30.3c0.5-12,10.4-21.9,22.4-22.5c9-0.4,17.3,4.2,21.6,11.9   c4.3-7.6,12.5-12.3,21.6-11.9C78.5,8.4,88.3,18.1,89,30c0.4,7.4-4.6,15.5-8.1,19.1L49.7,80.3C48.5,81.5,46.8,82.2,45,82.2z    M24.5,10.8c-0.3,0-0.6,0-1,0C13.1,11.3,4.5,19.9,4,30.4c-0.3,6.9,4.7,14,7.7,17l30.8,30.8c1.4,1.4,3.7,1.4,5.1,0L78.7,47   c3-3.1,7.6-10.4,7.2-16.8c-0.6-10.4-9.2-18.9-19.5-19.3c-8.9-0.4-16.8,4.7-20.1,12.9c-0.2,0.6-0.8,0.9-1.4,0.9s-1.2-0.4-1.4-0.9   C40.5,15.9,33,10.8,24.5,10.8z"/></g></svg>